<svg width="48" height="48" viewBox="0 0 48 48" fill="none" xmlns="http://www.w3.org/2000/svg">
  <rect width="48" height="48" rx="14" fill="#1B3154"/>
  <path d="M25.5 11C26.4 14.1 28.5 16.3 31.6 17.3V21.1C29.5 21 27.6 20.3 25.9 19.1V28.2C25.9 33.3 22.4 36.6 17.9 36.6C13.6 36.6 10 33.2 10 28.8C10 24.4 13.6 21 17.9 21C18.7 21 19.5 21.1 20.2 21.4V25.6C19.6 25.2 18.8 25 17.9 25C15.8 25 14 26.6 14 28.8C14 31 15.8 32.7 17.9 32.7C20.2 32.7 21.9 31.1 21.9 28.2V11H25.5Z" fill="#FFF6DC"/>
  <path d="M24 11V28.1C24 30.6 22.3 32.1 20.2 32.1C18.2 32.1 16.7 30.5 16.7 28.7C16.7 26.7 18.2 25.3 20.2 25.3C20.8 25.3 21.3 25.4 21.8 25.7V21.5C21.1 21.2 20.3 21.1 19.5 21.1C15.2 21.1 11.6 24.5 11.6 28.8C11.6 33.1 15.2 36.5 19.5 36.5C23.9 36.5 27.4 33.3 27.4 28.1V19C29.1 20.2 31 20.9 33.1 21V17.2C30 16.2 27.9 14.1 27 11H24Z" fill="#FF4F84" fill-opacity="0.75"/>
</svg>
