<svg xmlns="http://www.w3.org/2000/svg" viewBox="0 0 1100 1100" aria-hidden="true">
  <g>
    <path
      fill="none"
      stroke="#8a4f00"
      stroke-width="50"
      stroke-linecap="round"
      stroke-linejoin="round"
      d="M640 200c25 5 49 15 70 28l38-38c6-6 16-6 23 0l47 47c7 7 7 17 0 24l-37 37c13 21 23 44 29 68h53c9 0 17 8 17 17v67c0 9-8 16-17 16h-53c-5 25-15 48-28 69l38 38c6 6 6 17 0 23l-47 47c-7 7-17 7-24 0l-37-37c-21 13-44 23-68 29v53c0 9-8 17-17 17h-67c-9 0-16-8-16-17v-53c-25-5-48-15-69-28l-38 38c-6 7-17 7-23 0l-47-47c-7-7-7-17 0-23l37-38c-13-21-23-44-29-68h-53c-9 0-17-8-17-17v-67c0-9 8-16 17-16h53c5-25 15-48 28-69l-38-38c-7-6-7-16 0-23l47-47c7-7 17-7 23 0l38 37c21-13 44-23 68-29v-53c0-9 8-16 17-16h67c9 0 16 7 16 16v53z"
    />
    <path
      fill="#e48a1f"
      d="M640 200c25 5 49 15 70 28l38-38c6-6 16-6 23 0l47 47c7 7 7 17 0 24l-37 37c13 21 23 44 29 68h53c9 0 17 8 17 17v67c0 9-8 16-17 16h-53c-5 25-15 48-28 69l38 38c6 6 6 17 0 23l-47 47c-7 7-17 7-24 0l-37-37c-21 13-44 23-68 29v53c0 9-8 17-17 17h-67c-9 0-16-8-16-17v-53c-25-5-48-15-69-28l-38 38c-6 7-17 7-23 0l-47-47c-7-7-7-17 0-23l37-38c-13-21-23-44-29-68h-53c-9 0-17-8-17-17v-67c0-9 8-16 17-16h53c5-25 15-48 28-69l-38-38c-7-6-7-16 0-23l47-47c7-7 17-7 23 0l38 37c21-13 44-23 68-29v-53c0-9 8-16 17-16h67c9 0 16 7 16 16v53zm-49 124c52 0 94 42 94 94 0 51-42 93-94 93-51 0-93-42-93-93 0-52 42-94 93-94z"
    />
    <path
      fill="#0000001a"
      d="M874 410v45c0 9-8 16-17 16h-53c-3 14-7 27-12 39 1-26 2-39 12-84h53c9 0 16-7 17-16zm-71 157 11 11c6 6 6 17 0 23l-47 47c-7 7-17 7-23 0l-38-37c-21 13-44 23-68 29v-45c24-6 47-16 68-29l38 38c6 6 16 6 23 0l36-37zm-165 82v44c0 9-8 17-17 17h-67c-9 0-16-8-16-17v-44c0 9 7 16 16 16h67c9 0 16-7 17-16zm-100-9c-25-5-48-15-69-28l-38 38c-6 7-17 7-23 0l-47-47c-7-7-7-17 0-23l10-11 37 36c6 7 17 7 23 0l38-38c21 13 44 23 69 28v45zm-156-127c-5-13-9-26-13-39h-53c-9 0-17-8-17-17v-44c1 9 8 16 17 16h53c11 45 11 58 13 84zm204-184c45 0 81 30 92 71 1-7 2 7 2-22 0-30-46-71-97-71-52 0-90 41-90 71 0 29 1 15 2 22 10-41 47-71 91-71z"
    />
    <circle cx="550" cy="550" r="120" fill="#8a4f00"/>
  </g>
</svg>
