<svg width="1200" height="860" viewBox="0 0 1200 860" fill="none" xmlns="http://www.w3.org/2000/svg">
  <rect width="1200" height="860" rx="72" fill="#10233E"/>
  <rect x="42" y="42" width="1116" height="776" rx="56" fill="#18345B"/>
  <g filter="url(#shadow)">
    <rect x="176" y="208" width="212" height="320" rx="34" transform="rotate(-16 176 208)" fill="#FFF4C9"/>
    <rect x="432" y="152" width="212" height="320" rx="34" transform="rotate(4 432 152)" fill="#FFF4C9"/>
    <rect x="726" y="206" width="212" height="320" rx="34" transform="rotate(18 726 206)" fill="#FFF4C9"/>
  </g>
  <rect x="216" y="252" width="132" height="104" rx="20" transform="rotate(-16 216 252)" fill="#F26D5B"/>
  <text x="256" y="420" transform="rotate(-16 256 420)" fill="#10233E" font-size="132" font-family="Arial" font-weight="700">L</text>
  <rect x="474" y="198" width="132" height="104" rx="20" transform="rotate(4 474 198)" fill="#F7B733"/>
  <text x="522" y="376" transform="rotate(4 522 376)" fill="#10233E" font-size="132" font-family="Arial" font-weight="700">E</text>
  <rect x="772" y="252" width="132" height="104" rx="20" transform="rotate(18 772 252)" fill="#5EC0E6"/>
  <text x="814" y="428" transform="rotate(18 814 428)" fill="#10233E" font-size="132" font-family="Arial" font-weight="700">T</text>
  <path d="M238 646C386 552 528 698 674 612C790 544 896 576 978 644" stroke="#F8E7A2" stroke-width="18" stroke-linecap="round"/>
  <defs>
    <filter id="shadow" x="120" y="108" width="940" height="566" filterUnits="userSpaceOnUse" color-interpolation-filters="sRGB">
      <feFlood flood-opacity="0" result="BackgroundImageFix"/>
      <feColorMatrix in="SourceAlpha" type="matrix" values="0 0 0 0 0 0 0 0 0 0 0 0 0 0 0 0 0 0 127 0" result="hardAlpha"/>
      <feOffset dy="24"/>
      <feGaussianBlur stdDeviation="24"/>
      <feColorMatrix type="matrix" values="0 0 0 0 0.0352941 0 0 0 0 0.0862745 0 0 0 0 0.168627 0 0 0 0.28 0"/>
      <feBlend mode="normal" in2="BackgroundImageFix" result="effect1_dropShadow_1_2"/>
      <feBlend mode="normal" in="SourceGraphic" in2="effect1_dropShadow_1_2" result="shape"/>
    </filter>
  </defs>
</svg>
