<svg width="1200" height="860" viewBox="0 0 1200 860" fill="none" xmlns="http://www.w3.org/2000/svg">
  <rect width="1200" height="860" rx="72" fill="#16345A"/>
  <rect x="42" y="42" width="1116" height="776" rx="56" fill="#204775"/>
  <ellipse cx="602" cy="630" rx="316" ry="68" fill="#0E2038" fill-opacity="0.44"/>
  <rect x="342" y="214" width="516" height="344" rx="40" fill="#F7B733"/>
  <rect x="364" y="236" width="472" height="300" rx="30" fill="#F8E7A2"/>
  <text x="444" y="380" fill="#10233E" font-size="88" font-family="Arial" font-weight="700">LETTER</text>
  <text x="492" y="470" fill="#10233E" font-size="88" font-family="Arial" font-weight="700">LOOM</text>
  <rect x="286" y="454" width="150" height="220" rx="28" transform="rotate(-20 286 454)" fill="#F26D5B"/>
  <rect x="298" y="468" width="126" height="196" rx="20" transform="rotate(-20 298 468)" fill="#FFF7D8"/>
  <text x="340" y="586" transform="rotate(-20 340 586)" fill="#10233E" font-size="76" font-family="Arial" font-weight="700">W</text>
  <rect x="772" y="474" width="150" height="220" rx="28" transform="rotate(18 772 474)" fill="#5EC0E6"/>
  <rect x="784" y="488" width="126" height="196" rx="20" transform="rotate(18 784 488)" fill="#FFF7D8"/>
  <text x="828" y="604" transform="rotate(18 828 604)" fill="#10233E" font-size="76" font-family="Arial" font-weight="700">R</text>
  <circle cx="458" cy="672" r="34" fill="#6FD06C"/>
  <circle cx="748" cy="690" r="28" fill="#F26D5B"/>
  <circle cx="826" cy="648" r="22" fill="#F7B733"/>
</svg>
