<?xml version="1.0" encoding="UTF-8"?>
<svg width="32" height="32" viewBox="0 0 32 32" fill="none" xmlns="http://www.w3.org/2000/svg">
  <path d="M25.6 17.6c-.032-3.2 2.624-4.736 2.736-4.816-1.504-2.176-3.84-2.496-4.672-2.528-1.984-.208-3.872 1.152-4.864 1.152-.992 0-2.528-1.12-4.16-1.088-2.144.032-4.128 1.248-5.232 3.168-2.24 3.872-.576 9.6 1.6 12.736 1.088 1.568 2.368 3.328 4.064 3.264 1.632-.064 2.24-1.056 4.192-1.056 1.952 0 2.496 1.056 4.16 1.024 1.728-.032 2.816-1.6 3.872-3.168 1.248-1.792 1.76-3.52 1.792-3.616-.032-.016-3.424-1.312-3.456-5.216zm-4.064-9.504c.896-1.088 1.504-2.624 1.344-4.096-1.296.064-2.848.864-3.776 1.92-.832.96-1.568 2.496-1.28 3.968 1.44.112 2.88-.736 3.712-1.792z" fill="#222"/>
</svg>
