<svg width="518" height="493" xmlns="http://www.w3.org/2000/svg" xmlns:svg="http://www.w3.org/2000/svg" clip-rule="evenodd" fill-rule="evenodd" version="1.1" xml:space="preserve">
 <!-- Created with SVG-edit - https://github.com/SVG-Edit/svgedit-->
 <g class="layer">
  <title>Layer 1</title>
  <g id="svg_1">
   <g id="svg_2">
    <path class="fil18 str22" d="m159.68,360.14c10.33,5.17 19.8,6.89 19.8,-16.36l0,-55.96l39.6,0l14.64,0c10.33,0 18.94,-8.61 18.94,-18.94l0,-14.64l0,0l0,-14.64c0,-10.33 -8.61,-18.94 -18.94,-18.94l-14.64,0l-39.6,0l0,-60.26c0,-14.64 -5.17,-18.08 -15.5,-12.91l-129.14,97.28c-6.89,7.75 -6.03,14.64 0,21.52l124.83,93.84zm68.01,-51.65l16.36,0c2.58,-0.86 5.17,-0.86 6.89,-0.86l0,0c2.58,0 5.17,0 7.75,0.86l16.36,0c10.33,0 18.94,7.75 18.94,18.94l0,22.38l0,14.64l86.09,0l0,-233.31l-86.09,0l0,14.64l0,23.24c0,11.19 -8.61,18.94 -18.94,18.94l-24.11,0l0,0l-23.24,0c-10.33,0 -18.94,-7.75 -18.94,-18.94l0,-23.24l0,-37.02l0,-24.97l0,0l0,-5.17c0,-23.24 18.94,-42.18 42.18,-42.18c1.72,-0.86 3.44,-0.86 5.17,-0.86l172.18,0l0,0c25.83,0 47.35,21.52 47.35,48.21l0,328c0,26.69 -21.52,48.21 -47.35,48.21l0,0l-172.18,0l-2.58,0l-2.58,0l0,0c-23.24,0 -42.18,-19.8 -42.18,-43.05l0,-5.17l0,0l0,-24.11l0,-37.88l0,-22.38c0,-11.19 8.61,-18.94 18.94,-18.94z" fill="none" id="svg_3" stroke="#7f7f7f" stroke-width="50.72"/>
    <path class="fil3" d="m159.68,360.14c10.33,5.17 19.8,6.89 19.8,-16.36l0,-55.96l39.6,0l14.64,0c10.33,0 18.94,-8.61 18.94,-18.94l0,-14.64l0,0l0,-14.64c0,-10.33 -8.61,-18.94 -18.94,-18.94l-14.64,0l-39.6,0l0,-60.26c0,-14.64 -5.17,-18.08 -15.5,-12.91l-129.14,97.28c-6.89,7.75 -6.03,14.64 0,21.52l124.83,93.84zm68.01,-51.65l16.36,0c2.58,-0.86 5.17,-0.86 6.89,-0.86l0,0c2.58,0 5.17,0 7.75,0.86l16.36,0c10.33,0 18.94,7.75 18.94,18.94l0,22.38l0,14.64l86.09,0l0,-233.31l-86.09,0l0,14.64l0,23.24c0,11.19 -8.61,18.94 -18.94,18.94l-24.11,0l0,0l-23.24,0c-10.33,0 -18.94,-7.75 -18.94,-18.94l0,-23.24l0,-37.02l0,-24.97l0,0l0,-5.17c0,-23.24 18.94,-42.18 42.18,-42.18c1.72,-0.86 3.44,-0.86 5.17,-0.86l172.18,0l0,0c25.83,0 47.35,21.52 47.35,48.21l0,328c0,26.69 -21.52,48.21 -47.35,48.21l0,0l-172.18,0l-2.58,0l-2.58,0l0,0c-23.24,0 -42.18,-19.8 -42.18,-43.05l0,-5.17l0,0l0,-24.11l0,-37.88l0,-22.38c0,-11.19 8.61,-18.94 18.94,-18.94z" fill="#ffffff" id="svg_4"/>
   </g>
   <path class="fil1" d="m159.68,360.14c10.33,5.17 19.8,6.89 19.8,-16.36l0,-18.94c0,23.24 -9.47,21.52 -19.8,16.36l-124.83,-94.7l-0.86,-0.86l0.86,-0.86c-6.89,7.75 -6.03,14.64 0,21.52l124.83,93.84zm19.8,-72.32l39.6,0l14.64,0c10.33,0 18.94,-8.61 18.94,-18.94l0,-14.64l0,0l0,-4.3c0,10.33 -8.61,18.94 -18.94,18.94l-14.64,0l-39.6,0l0,18.94zm0,-129.14c0,-1.72 0,-2.58 0,-3.44c0,0.86 0,1.72 0,3.44zm200.59,-27.55l-86.09,0l0,-4.3l0,-14.64l86.09,0l0,18.94zm-86.09,19.8l0,18.08c0,11.19 -8.61,18.94 -18.94,18.94l-24.11,0l0,0l-23.24,0c-10.33,0 -18.94,-7.75 -18.94,-18.94l0,-18.08c0,10.33 8.61,18.08 18.94,18.08l23.24,0l0,0l24.11,0c10.33,0 18.08,-7.75 18.94,-18.08zm181.65,241.91l0,18.94c0,26.69 -21.52,48.21 -47.35,48.21l0,0l-172.18,0l-2.58,0l-2.58,0l0,0c-23.24,0 -42.18,-19.8 -42.18,-43.05l0,-5.17l0,0l0,-13.77c0,23.24 18.94,43.05 42.18,43.05l0,0l2.58,-0.86l2.58,0.86l172.18,0l0,0c25.83,0 47.35,-21.52 47.35,-48.21z" fill="#000000" fill-opacity="0.1" id="svg_5"/>
  </g>
 </g>
</svg>