<svg width="396" height="556" xmlns="http://www.w3.org/2000/svg" xmlns:svg="http://www.w3.org/2000/svg" clip-rule="evenodd" fill-rule="evenodd" version="1.1" xml:space="preserve">
 <!-- Created with SVG-edit - https://github.com/SVG-Edit/svgedit-->
 <g class="layer">
  <title>Layer 1</title>
  <g id="svg_1">
   <g id="svg_2">
    <path class="fil62 str46" d="m255.85,298.21c-26.38,18.72 1.7,60.41 -72.32,62.11c-57.86,1.7 -60.41,-71.47 -45.95,-107.21c15.32,-36.59 55.31,-38.29 69.77,-47.65c14.46,-9.36 14.46,-17.87 11.91,-25.53c-2.55,-7.66 -44.25,-30.63 -91.04,16.17c-37.44,38.29 -121.68,4.25 -93.6,-68.92c44.25,-117.42 334.39,-113.17 330.99,57.86c-0.85,80.83 -83.39,95.3 -109.76,113.17zm-70.62,97.85c34.04,0 61.26,27.23 61.26,61.26c0,34.04 -27.23,62.11 -61.26,62.11c-34.04,0 -61.26,-28.08 -61.26,-62.11c0,-34.04 27.23,-61.26 61.26,-61.26z" fill="none" id="svg_3" stroke="#7f7f7f" stroke-width="52.28"/>
    <path class="fil63" d="m255.85,298.21c-26.38,18.72 1.7,60.41 -72.32,62.11c-57.86,1.7 -60.41,-71.47 -45.95,-107.21c15.32,-36.59 55.31,-38.29 69.77,-47.65c14.46,-9.36 14.46,-17.87 11.91,-25.53c-2.55,-7.66 -44.25,-30.63 -91.04,16.17c-37.44,38.29 -121.68,4.25 -93.6,-68.92c44.25,-117.42 334.39,-113.17 330.99,57.86c-0.85,80.83 -83.39,95.3 -109.76,113.17zm-70.62,97.85c34.04,0 61.26,27.23 61.26,61.26c0,34.04 -27.23,62.11 -61.26,62.11c-34.04,0 -61.26,-28.08 -61.26,-62.11c0,-34.04 27.23,-61.26 61.26,-61.26z" fill="#ffffff" fill-rule="nonzero" id="svg_4"/>
   </g>
   <path class="fil1" d="m198.85,500.72c-34.04,0 -61.26,-28.08 -61.26,-62.11c0,-9.36 1.7,-17.87 5.96,-26.38c-11.91,11.06 -19.57,27.23 -19.57,45.1c0,34.04 27.23,62.11 61.26,62.11c24.68,0 45.95,-14.46 55.31,-35.74c-11.06,10.21 -25.53,17.02 -41.69,17.02z" fill="#000000" fill-opacity="0.1" id="svg_5"/>
   <path class="fil1" d="m137.58,253.11c-14.46,35.74 -11.91,108.91 45.95,107.21c39.99,-0.85 50.2,-13.61 55.31,-28.08c-8.51,5.96 -21.27,9.36 -41.69,9.36c-57.86,1.7 -60.41,-71.47 -45.1,-107.21c0,-0.85 0,-1.7 0.85,-2.55c-5.96,5.11 -11.06,11.91 -15.32,21.27z" fill="#000000" fill-opacity="0.1" id="svg_6"/>
   <path class="fil1" d="m34.63,127.18c-28.08,73.18 56.16,107.21 93.6,68.92c46.8,-46.8 88.49,-23.82 91.04,-16.17c0.85,2.55 1.7,4.25 1.7,6.81c0,0 0,0 0,0c14.46,-9.36 15.32,-17.87 11.91,-25.53c-2.55,-7.66 -44.25,-30.63 -91.04,16.17c-37.44,38.29 -120.82,4.25 -93.6,-68.92c1.7,-4.25 3.4,-8.51 5.96,-11.91c-8.51,8.51 -15.32,18.72 -19.57,30.63z" fill="#000000" fill-opacity="0.1" id="svg_7"/>
  </g>
 </g>
</svg>