<svg width="64px" height="64px" viewBox="-2.4 -2.4 28.80 28.80" xmlns="http://www.w3.org/2000/svg" fill="none">
  <g id="screen-main">
    <!-- 1. Fondo BLANCO (#FFFFFF) -->
    <path d="M20.5 2h-13C6.12 2 5 3.68 5 5.75V15H3.5C2.12 15 1 16.57 1 18.5S2.12 22 3.5 22h13c1.38 0 2.5-1.68 2.5-3.75V9h1.5C21.88 9 23 7.43 23 5.5S21.88 2 20.5 2z" 
          fill="#FFFFFF" 
          stroke="none"/>

    <!-- 2. Contorno exterior fino (0.4) -->
    <path d="M20.5 2h-13C6.5 2 6 3 6 5.75V15H3.5C2 15 1 16.5 1 18.5S2 22 3.5 22h13c1.4 0 2.5-1.7 2.5-3.75V9h1.5C21.5 9 23 7.5 23 5.5S21.5 2 20.5 2z" 
          stroke="#000000" 
          stroke-width="0.4" 
          stroke-linecap="round" 
          stroke-linejoin="round"/>

    <!-- 3. Línea interior del papel enrollado -->
    <path d="M6 15 h11 c.8 0 1.5.5 1.5 1.5 v1" 
          stroke="#000000" 
          stroke-width="0.4" 
          stroke-linecap="round" 
          stroke-linejoin="round"
          fill="none"/>

    <!-- 4. Pestaña lateral derecha -->
    <path d="M19 9 V5.75 C19 4.2 19.4 3 19.8 3" 
          stroke="#000000" 
          stroke-width="0.4" 
          stroke-linecap="round"/>

    <!-- 5. Líneas de texto -->
    <line x1="9" y1="6" x2="16" y2="6" stroke="#000000" stroke-width="0.4" stroke-linecap="round"/>
    <line x1="9" y1="9" x2="16" y2="9" stroke="#000000" stroke-width="0.4" stroke-linecap="round"/>
    <line x1="9" y1="12" x2="14" y2="12" stroke="#000000" stroke-width="0.4" stroke-linecap="round"/>
  </g>
</svg>