<svg
  xmlns="http://www.w3.org/2000/svg"
  viewBox="278 114 619 619"
  fill-rule="evenodd"
  clip-rule="evenodd"
  preserveAspectRatio="xMidYMid meet"
  class="svg-icon settings-icon"
>  
  <defs>
    <style>
      .settings-outline { fill: none; stroke: var(--stroke, black); }
      .settings-body { fill: var(--fill, white); }
      .settings-shadow { fill: var(--shadow, grey); opacity: var(--shadowOpacity); }
    </style>
  </defs>

  <!-- CONTORNO -->
  <path
    class="settings-outline"
    d="m635.83,205c25,5 48,15 69,28l38,-38c6,-6 16,-6 23,0l47,47c7,7 7,17 0,24l-37,37c13,21 23,44 29,68l53,0c9,0 17,8 17,17l0,67c0,9 -8,16 -17,16l-53,0c-5,25 -15,48 -28,69l38,38c6,6 6,17 0,23l-47,47c-7,7 -17,7 -24,0l-37,-37c-21,13 -44,23 -68,29l0,53c0,9 -8,17 -17,17l-67,0c-9,0 -16,-8 -16,-17l0,-53c-25,-5 -48,-15 -69,-28l-38,38c-6,7 -17,7 -23,0l-47,-47c-7,-7 -7,-17 0,-23l37,-38c-13,-21 -23,-44 -29,-68l-53,0c-9,0 -17,-8 -17,-17l0,-67c0,-9 8,-16 17,-16l53,0c5,-25 15,-48 28,-69l-38,-38c-7,-6 -7,-16 0,-23l47,-47c7,-7 17,-7 23,0l38,37c21,-13 44,-23 68,-29l0,-53c0,-9 8,-16 17,-16l67,0c9,0 16,7 16,16l0,53zm-49,124c52,0 94,42 94,94c0,51 -42,93 -94,93c-51,0 -93,-42 -93,-93c0,-52 42,-94 93,-94z"
    fill="none"
    stroke-width="35"
    stroke-linecap="round"
    stroke-linejoin="round"
  />

  <!-- CUERPO -->
  <path
    class="settings-body"
    d="m635.83,205c25,5 48,15 69,28l38,-38c6,-6 16,-6 23,0l47,47c7,7 7,17 0,24l-37,37c13,21 23,44 29,68l53,0c9,0 17,8 17,17l0,67c0,9 -8,16 -17,16l-53,0c-5,25 -15,48 -28,69l38,38c6,6 6,17 0,23l-47,47c-7,7 -17,7 -24,0l-37,-37c-21,13 -44,23 -68,29l0,53c0,9 -8,17 -17,17l-67,0c-9,0 -16,-8 -16,-17l0,-53c-25,-5 -48,-15 -69,-28l-38,38c-6,7 -17,7 -23,0l-47,-47c-7,-7 -7,-17 0,-23l37,-38c-13,-21 -23,-44 -29,-68l-53,0c-9,0 -17,-8 -17,-17l0,-67c0,-9 8,-16 17,-16l53,0c5,-25 15,-48 28,-69l-38,-38c-7,-6 -7,-16 0,-23l47,-47c7,-7 17,-7 23,0l38,37c21,-13 44,-23 68,-29l0,-53c0,-9 8,-16 17,-16l67,0c9,0 16,7 16,16l0,53zm-49,124c52,0 94,42 94,94c0,51 -42,93 -94,93c-51,0 -93,-42 -93,-93c0,-52 42,-94 93,-94z"
  />

  <!-- SOMBRA -->
  <path
    class="settings-shadow"
    d="m874.83,410l0,45c0,9 -8,16 -17,16l-53,0c-3,14 -7,27 -12,39c1,-26 2,-39 12,-84l53,0c9,0 16,-7 17,-16zm-71,157l11,11c6,6 6,17 0,23l-47,47c-7,7 -17,7 -23,0l-38,-37c-21,13 -44,23 -68,29l0,-45c24,-6 47,-16 68,-29l38,38c6,6 16,6 23,0l36,-37zm-165,82l0,44c0,9 -8,17 -17,17l-67,0c-9,0 -16,-8 -16,-17l0,-44c0,9 7,16 16,16l67,0c9,0 16,-7 17,-16zm-100,-9c-25,-5 -48,-15 -69,-28l-38,38c-6,7 -17,7 -23,0l-47,-47c-7,-7 -7,-17 0,-23l10,-11l37,36c6,7 17,7 23,0l38,-38c21,13 44,23 69,28l0,45zm-156,-127c-5,-13 -9,-26 -13,-39l-53,0c-9,0 -17,-8 -17,-17l0,-44c1,9 8,16 17,16l53,0c11,45 11,58 13,84zm204,-184c45,0 81,30 92,71c1,-7 2,7 2,-22c0,-30 -46,-71 -97,-71c-52,0 -90,41 -90,71c0,29 1,15 2,22c10,-41 47,-71 91,-71z"
  />
</svg>