<svg width="459" height="384" xmlns="http://www.w3.org/2000/svg" xmlns:svg="http://www.w3.org/2000/svg" clip-rule="evenodd" fill-rule="evenodd" version="1.1" xml:space="preserve">
 <!-- Created with SVG-edit - https://github.com/SVG-Edit/svgedit-->
 <g class="layer">
  <title>Layer 1</title>
  <g id="svg_11">
   <g id="svg_12">
    <path class="fil18 str26" d="m27.47,51.69l9.44,-20.91c1.35,-4.05 4.72,-5.4 10.12,-4.05l51.27,22.26c2.02,0.67 4.05,2.7 4.72,5.4l57.34,153.14c0.67,2.02 2.02,3.37 6.07,3.37l161.24,0c1.35,0 2.02,-0.67 2.7,-2.02l51.27,-122.11c2.02,-4.72 5.4,-6.07 10.12,-4.05c7.42,2.7 14.84,6.07 22.94,9.44c4.05,2.02 6.07,4.72 4.05,10.12l-58.02,139.65c-0.67,2.7 -4.72,6.07 -8.1,6.07l-170.01,0c-4.72,0 -6.07,2.02 -4.72,6.07l3.37,9.44c16.87,0.67 31.71,10.79 38.45,25.64l78.93,0c7.42,-15.52 23.61,-25.64 41.15,-25.64c25.64,0 46.55,20.24 46.55,45.87c0,24.96 -20.91,45.87 -46.55,45.87c-21.59,0 -39.13,-14.84 -44.53,-35.08l-72.19,0c-4.72,20.24 -22.94,35.08 -44.53,35.08c-24.96,0 -45.87,-20.91 -45.87,-45.87c0,-12.14 4.05,-22.26 11.47,-30.36c-24.96,-67.46 -47.22,-129.53 -72.19,-196.99c-1.35,-2.7 -4.05,-4.72 -8.77,-6.75c-10.79,-4.05 -20.91,-8.77 -31.71,-12.82c-4.72,-2.7 -6.07,-5.4 -4.05,-10.79zm156.51,106.59l121.43,0c6.75,0 12.14,6.07 12.14,12.14l0,0c0,6.75 -5.4,12.14 -12.14,12.14l-121.43,0c-6.75,0 -12.14,-5.4 -12.14,-12.14l0,0c0,-6.07 5.4,-12.14 12.14,-12.14zm-19.56,-46.55l160.56,0c6.75,0 12.14,5.4 12.14,12.14l0,0c0,6.75 -5.4,12.14 -12.14,12.14l-160.56,0c-6.75,0 -12.14,-5.4 -12.14,-12.14l0,0c0,-6.75 5.4,-12.14 12.14,-12.14z" fill="none" id="svg_13" stroke="#7f7f7f" stroke-width="50.73"/>
    <path class="fil3" d="m27.47,51.69l9.44,-20.91c1.35,-4.05 4.72,-5.4 10.12,-4.05l51.27,22.26c2.02,0.67 4.05,2.7 4.72,5.4l57.34,153.14c0.67,2.02 2.02,3.37 6.07,3.37l161.24,0c1.35,0 2.02,-0.67 2.7,-2.02l51.27,-122.11c2.02,-4.72 5.4,-6.07 10.12,-4.05c7.42,2.7 14.84,6.07 22.94,9.44c4.05,2.02 6.07,4.72 4.05,10.12l-58.02,139.65c-0.67,2.7 -4.72,6.07 -8.1,6.07l-170.01,0c-4.72,0 -6.07,2.02 -4.72,6.07l3.37,9.44c16.87,0.67 31.71,10.79 38.45,25.64l78.93,0c7.42,-15.52 23.61,-25.64 41.15,-25.64c25.64,0 46.55,20.24 46.55,45.87c0,24.96 -20.91,45.87 -46.55,45.87c-21.59,0 -39.13,-14.84 -44.53,-35.08l-72.19,0c-4.72,20.24 -22.94,35.08 -44.53,35.08c-24.96,0 -45.87,-20.91 -45.87,-45.87c0,-12.14 4.05,-22.26 11.47,-30.36c-24.96,-67.46 -47.22,-129.53 -72.19,-196.99c-1.35,-2.7 -4.05,-4.72 -8.77,-6.75c-10.79,-4.05 -20.91,-8.77 -31.71,-12.82c-4.72,-2.7 -6.07,-5.4 -4.05,-10.79zm156.51,106.59l121.43,0c6.75,0 12.14,6.07 12.14,12.14l0,0c0,6.75 -5.4,12.14 -12.14,12.14l-121.43,0c-6.75,0 -12.14,-5.4 -12.14,-12.14l0,0c0,-6.07 5.4,-12.14 12.14,-12.14zm-19.56,-46.55l160.56,0c6.75,0 12.14,5.4 12.14,12.14l0,0c0,6.75 -5.4,12.14 -12.14,12.14l-160.56,0c-6.75,0 -12.14,-5.4 -12.14,-12.14l0,0c0,-6.75 5.4,-12.14 12.14,-12.14z" fill="#ffffff" id="svg_14"/>
   </g>
   <path class="fil1" d="m27.47,51.69l2.02,-5.4c0.67,0.67 1.35,0.67 2.02,0.67c10.79,4.72 20.91,8.77 31.71,13.49c4.72,2.02 7.42,4.05 8.77,6.75c24.96,66.79 50.6,139.65 76.23,206.44c-1.35,2.02 -2.7,3.37 -4.05,5.4c-23.61,-63.42 -48.57,-132.9 -72.19,-196.99c-1.35,-2.7 -4.05,-4.72 -8.77,-6.75c-10.79,-4.05 -20.91,-8.77 -31.71,-12.82c-4.72,-2.7 -6.07,-5.4 -4.05,-10.79zm389.26,41.15c2.7,2.02 4.05,4.72 2.02,9.44l-58.02,139.65c-0.67,2.7 -4.72,6.07 -8.1,6.07l-170.01,0l-1.35,0l-3.37,-8.77c-1.35,-4.72 0,-6.75 4.72,-6.07l170.01,0c3.37,0 7.42,-3.37 8.1,-6.07l55.99,-134.25zm-31.03,209.13c0,2.02 0.67,4.72 0.67,7.42c0,24.96 -20.91,45.87 -46.55,45.87c-21.59,0 -39.13,-14.84 -44.53,-35.08l-72.19,0c-4.72,20.24 -22.94,35.08 -44.53,35.08c-24.96,0 -45.87,-20.91 -45.87,-45.87c0,-2.7 0,-5.4 0.67,-7.42c3.37,21.59 22.26,38.45 45.2,38.45c21.59,0 39.8,-15.52 44.53,-35.08l72.19,0c5.4,19.56 22.94,35.08 44.53,35.08c22.94,0 41.83,-16.87 45.87,-38.45zm-70.84,-138.97c1.35,2.02 2.7,4.72 2.7,7.42l0,0c0,6.75 -5.4,12.14 -12.14,12.14l-121.43,0c-6.75,0 -12.14,-5.4 -12.14,-12.14l0,0c0,-2.7 0.67,-5.4 2.7,-7.42c0.67,7.42 4.72,10.79 8.77,10.79l121.43,0c4.05,0 9.44,-2.7 10.12,-10.79zm19.56,-46.55c1.35,2.02 2.7,4.72 2.7,7.42l0,0c0,6.75 -5.4,12.14 -12.14,12.14l-160.56,0c-6.75,0 -12.14,-5.4 -12.14,-12.14l0,0c0,-2.7 0.67,-5.4 2.7,-7.42c0,8.1 6.75,12.14 10.12,12.14l160.56,0c4.05,0 8.77,-6.07 8.77,-12.14z" fill="#000000" fill-opacity="0.1" id="svg_15"/>
  </g>
 </g>
</svg>